<?xml version="1.0"?>
<svg xmlns="http://www.w3.org/2000/svg" xmlns:xlink="http://www.w3.org/1999/xlink" xmlns:svgjs="http://svgjs.com/svgjs" version="1.1" width="25" height="20" x="0" y="0" viewBox="0 0 24 24" style="enable-background:new 0 0 512 512" xml:space="preserve"><g><path xmlns="http://www.w3.org/2000/svg" d="m14.823 11.708a.325.325 0 0 1 .169.292.314.314 0 0 1 -.12.266l-5.372 2.688a.337.337 0 0 1 -.5-.293v-5.322a.327.327 0 0 1 .168-.292.314.314 0 0 1 .157-.042.462.462 0 0 1 .228.068zm9.177-6.708v14a5.006 5.006 0 0 1 -5 5h-14a5.006 5.006 0 0 1 -5-5v-14a5.006 5.006 0 0 1 5-5h14a5.006 5.006 0 0 1 5 5zm-7.008 7a2.332 2.332 0 0 0 -1.226-2.055l-5.278-2.635a2.337 2.337 0 0 0 -3.5 2.029v5.322a2.313 2.313 0 0 0 1.164 2.021 2.368 2.368 0 0 0 1.186.323 2.2 2.2 0 0 0 1.1-.289l5.376-2.687a2.313 2.313 0 0 0 1.178-2.029z" fill="#6ebe67" data-original="#000000"/></g></svg>
